<?xml version="1.0" encoding="UTF-8"?> <svg xmlns="http://www.w3.org/2000/svg" id="Layer_1" data-name="Layer 1" viewBox="0 0 500 500"><defs><style>.cls-1{fill:#ffffff;}.cls-2{fill:#2978f0;}</style></defs><polygon class="cls-1" points="453.45 238.37 258.08 91.44 62.72 238.37 50.7 222.38 258.08 66.42 465.47 222.38 453.45 238.37"></polygon><rect class="cls-2" x="111.17" y="346.67" width="104.41" height="16.25"></rect><rect class="cls-2" x="300.58" y="346.67" width="104.42" height="16.25"></rect><rect class="cls-2" x="111.17" y="372.92" width="293.83" height="16.25"></rect><rect class="cls-2" x="111.17" y="399.17" width="293.83" height="16.25"></rect><rect class="cls-2" x="111.17" y="320.42" width="104.41" height="16.25"></rect><rect class="cls-2" x="300.58" y="320.42" width="104.42" height="16.25"></rect><polygon class="cls-2" points="273.36 126.67 258.08 115.18 242.81 126.67 273.36 126.67"></polygon><polygon class="cls-2" points="111.17 225.67 111.17 231.67 405 231.67 405 225.67 391.37 215.42 124.8 215.42 111.17 225.67"></polygon><polygon class="cls-2" points="194.61 162.92 173 179.17 343.17 179.17 321.56 162.92 194.61 162.92"></polygon><polygon class="cls-2" points="229.51 136.67 207.9 152.92 308.26 152.92 286.65 136.67 229.51 136.67"></polygon><polygon class="cls-2" points="159.7 189.17 138.09 205.42 378.07 205.42 356.46 189.17 159.7 189.17"></polygon><rect class="cls-2" x="111.17" y="425.42" width="293.83" height="12.75"></rect><rect class="cls-2" x="111.17" y="241.67" width="293.83" height="16.25"></rect><rect class="cls-2" x="111.17" y="294.17" width="104.41" height="16.25"></rect><rect class="cls-2" x="300.58" y="294.17" width="104.42" height="16.25"></rect><rect class="cls-2" x="111.17" y="267.92" width="104.41" height="16.25"></rect><rect class="cls-2" x="300.58" y="267.92" width="104.42" height="16.25"></rect></svg> 