<?xml version="1.0" encoding="UTF-8"?> <svg xmlns="http://www.w3.org/2000/svg" id="Layer_1" data-name="Layer 1" viewBox="0 0 500 500"><defs><style>.cls-1{fill:#ffffff;}.cls-2{fill:#2978f0;}</style></defs><polygon class="cls-1" points="264.94 258.42 244.94 258.42 244.94 193.57 392.88 193.57 392.88 107.04 412.88 107.04 412.88 213.57 264.94 213.57 264.94 258.42"></polygon><rect class="cls-1" x="87.13" y="106.88" width="29.5" height="20"></rect><path class="cls-2" d="M285.92,430.42H223.83a10,10,0,0,1-10-10V263.37a9.94,9.94,0,0,1,10-10h62.09a10,10,0,0,1,10,10V420.46A10,10,0,0,1,285.92,430.42Zm-52.09-10h42.09a10,10,0,0,0,10-10V273.37a10,10,0,0,0-10-9.95H233.83a9.94,9.94,0,0,0-10,9.95V410.46A10,10,0,0,0,233.83,420.42Z"></path><rect class="cls-2" x="260.63" y="281.34" width="10" height="120.83"></rect><path class="cls-2" d="M363.73,78.63H140.52A14.39,14.39,0,0,0,126.13,93v47.72a14.39,14.39,0,0,0,14.39,14.39H363.73a14.4,14.4,0,0,0,14.4-14.39V93A14.4,14.4,0,0,0,363.73,78.63Zm-3.1,25H145.8v-10H360.63Z"></path></svg> 