<?xml version="1.0" encoding="UTF-8"?> <svg xmlns="http://www.w3.org/2000/svg" id="Layer_1" data-name="Layer 1" viewBox="0 0 500 500"><defs><style>.cls-1{fill:#2978f0;}.cls-2{fill:#ffffff;}</style></defs><path class="cls-1" d="M192.72,230.71h107a0,0,0,0,1,0,0V267.9a53.5,53.5,0,0,1-53.5,53.5h0a53.5,53.5,0,0,1-53.5-53.5V230.71a0,0,0,0,1,0,0Z"></path><path class="cls-2" d="M284.74,209H262.08V139.13h22.66Zm-15.66-7h8.66V146.13h-8.66Z"></path><path class="cls-2" d="M230.37,209H207.71V139.13h22.66Zm-15.66-7h8.66V146.13h-8.66Z"></path><path class="cls-1" d="M252.93,436.25c-98,0-177.68-79.7-177.68-177.67S155,80.9,252.93,80.9,430.6,160.61,430.6,258.58c0,33.22-10.11,67.08-27.74,92.88-19.52,28.58-47,45.82-77.39,48.56-25.87,2.32-51.69-5.77-69.07-21.65C244.56,367.54,238,354.44,238,341.47V276.05h17.4v65.42c0,7.91,4.63,16.68,12.71,24.06,13.83,12.64,34.68,19.06,55.77,17.16,55.9-5,89.3-67.06,89.3-124.11,0-88.38-71.9-160.28-160.28-160.28S92.65,170.2,92.65,258.58s71.9,160.28,160.28,160.28Z"></path><rect class="cls-1" x="174.46" y="198.78" width="143.53" height="35.85"></rect></svg> 