<?xml version="1.0" encoding="UTF-8"?> <svg xmlns="http://www.w3.org/2000/svg" id="Layer_1" data-name="Layer 1" viewBox="0 0 500 500"><defs><style>.cls-1{fill:#2978f0;}.cls-2{fill:#ffffff;}</style></defs><path class="cls-1" d="M386.42,82.87a10.82,10.82,0,0,0-7.9-3.37h-256a10.92,10.92,0,0,0-10.92,11.4l5.11,117.5h16A23.31,23.31,0,0,1,156,232.7l-1.73,40.56H346.8l-1.73-40.56a23.31,23.31,0,0,1,23.29-24.3h16l5.1-117.5A10.82,10.82,0,0,0,386.42,82.87ZM199.17,229.58a12.38,12.38,0,1,1,12.37-12.38A12.38,12.38,0,0,1,199.17,229.58Zm0-77.4a12.38,12.38,0,1,1,12.37-12.38A12.38,12.38,0,0,1,199.17,152.18Zm102.75,77.4a12.38,12.38,0,1,1,12.37-12.38A12.38,12.38,0,0,1,301.92,229.58Zm0-77.4a12.38,12.38,0,1,1,12.37-12.38A12.38,12.38,0,0,1,301.92,152.18Z"></path><path class="cls-1" d="M413.58,221.67a14.4,14.4,0,0,0-10.48-4.47H368.36a14.51,14.51,0,0,0-14.49,15.12l1.74,40.94,0,.53H369.7a20.49,20.49,0,0,1,20.43,20.44v65.14A20.27,20.27,0,0,1,386.48,371h19.1a6.37,6.37,0,0,0,6.38-6.11l5.64-132.57A14.37,14.37,0,0,0,413.58,221.67Z"></path><path class="cls-1" d="M116.51,280.26a20,20,0,0,1,3.65-3.09,20.31,20.31,0,0,1,11.22-3.38h14.07l0-.53,1.74-40.94a14.51,14.51,0,0,0-14.49-15.12H98a14.51,14.51,0,0,0-14.49,15.12l5.64,132.57A6.36,6.36,0,0,0,95.5,371h19.1A20.35,20.35,0,0,1,111,359.37V294.23A20.32,20.32,0,0,1,116.51,280.26Z"></path><path class="cls-1" d="M369.7,282.59H131.38a11.65,11.65,0,0,0-11.63,11.64v65.14A11.65,11.65,0,0,0,131.38,371H369.7a11.65,11.65,0,0,0,11.63-11.63V294.23A11.65,11.65,0,0,0,369.7,282.59Z"></path><path class="cls-2" d="M353.6,386.34l23.27,45H359l-23.27-45H353.6m4.26-7H324.18l5.28,10.22,23.27,45,2,3.79h33.68l-5.29-10.22-23.26-45-2-3.79Z"></path><path class="cls-2" d="M165.4,386.34l-23.26,45H124.22l23.26-45H165.4m11.51-7H143.22l-2,3.79-23.26,45-5.29,10.22H146.4l1.95-3.79,23.27-45,5.29-10.22Z"></path></svg> 