<?xml version="1.0" encoding="UTF-8"?> <svg xmlns="http://www.w3.org/2000/svg" id="Layer_1" data-name="Layer 1" viewBox="0 0 500 500"><defs><style>.cls-1{fill:#2978f0;}.cls-2{fill:#ffffff;}</style></defs><path class="cls-1" d="M409,335H325.42V310.65H86.83V227.12H349a60.06,60.06,0,0,1,60,60Z"></path><rect class="cls-1" x="313.15" y="345.52" width="108.85" height="50.12" rx="6.02"></rect><circle class="cls-1" cx="218.77" cy="264.34" r="71.78"></circle><path class="cls-2" d="M278.19,174.53H159.35a17.81,17.81,0,0,1-17.79-17.79v-2A17.81,17.81,0,0,1,159.35,137H278.19A17.81,17.81,0,0,1,296,154.78v2A17.81,17.81,0,0,1,278.19,174.53ZM159.35,144a10.8,10.8,0,0,0-10.79,10.79v2a10.8,10.8,0,0,0,10.79,10.79H278.19A10.8,10.8,0,0,0,289,156.74v-2A10.8,10.8,0,0,0,278.19,144Z"></path><rect class="cls-1" x="203.07" y="182.18" width="31.4" height="45.35"></rect><path class="cls-2" d="M216.74,106.1h4.07a13.67,13.67,0,0,1,13.67,13.67v9a0,0,0,0,1,0,0h-31.4a0,0,0,0,1,0,0v-9A13.67,13.67,0,0,1,216.74,106.1Z"></path></svg> 