<?xml version="1.0" encoding="UTF-8"?> <svg xmlns="http://www.w3.org/2000/svg" id="Layer_1" data-name="Layer 1" viewBox="0 0 500 500"><defs><style>.cls-1{fill:#2978f0;}.cls-2{fill:#ffffff;}</style></defs><path class="cls-1" d="M193.77,274.76h29.65a15.14,15.14,0,0,1,15.06,16.68l-10.39,102a35.07,35.07,0,0,0,70.13,0l-10.39-102a15.14,15.14,0,0,1,15.07-16.68h31.49V226.6H193.77Zm67.53,110A14.26,14.26,0,1,1,249,397,14.25,14.25,0,0,1,261.3,384.74Z"></path><path class="cls-2" d="M337,211.08H191.22L157.28,70.63H369Zm-140.65-6.47H331.81L360.86,77.1H165.51Z"></path><polygon class="cls-2" points="250.67 83.58 228.46 83.58 190.53 146.76 196.66 173.54 250.67 83.58"></polygon><polygon class="cls-2" points="262.06 83.58 257.27 83.58 198.7 181.15 200.12 186.69 262.06 83.58"></polygon><polygon class="cls-2" points="296.86 83.46 280.21 83.46 212.53 197.25 229.19 197.25 296.86 83.46"></polygon></svg> 