<?xml version="1.0" encoding="UTF-8"?> <svg xmlns="http://www.w3.org/2000/svg" id="Layer_1" data-name="Layer 1" viewBox="0 0 500 500"><defs><style>.cls-1{fill:#2978f0;}.cls-2{fill:#ffffff;}</style></defs><path class="cls-1" d="M70.77,229.08V438.17H279.86V229.08Zm74.6,177.25H97.87V385.28h47.5Zm0-58.22H97.87V327.06h47.5Zm0-58.22H97.87V268.83h47.5Zm53.7,87.21h-47.5V356h47.5Zm0-58h-47.5V298.07h47.5Zm56.7,87.21h-47.5V385.28h47.5Zm0-58.22h-47.5V327.06h47.5Zm0-58.22h-47.5V268.83h47.5Z"></path><path class="cls-1" d="M220.14,79.89v59.6H369.46V289h59.77V79.89Zm29.2,50.44A13.38,13.38,0,1,1,262.71,117,13.37,13.37,0,0,1,249.34,130.33Zm47.56,0A13.38,13.38,0,1,1,310.28,117,13.36,13.36,0,0,1,296.9,130.33Zm47.56,0A13.38,13.38,0,1,1,357.84,117,13.37,13.37,0,0,1,344.46,130.33ZM392,275.28A13.38,13.38,0,1,1,405.4,261.9,13.38,13.38,0,0,1,392,275.28ZM392,227a13.38,13.38,0,1,1,13.38-13.37A13.38,13.38,0,0,1,392,227Zm0-48.31a13.38,13.38,0,1,1,13.38-13.38A13.38,13.38,0,0,1,392,178.65Zm0-48.32A13.38,13.38,0,1,1,405.4,117,13.37,13.37,0,0,1,392,130.33Z"></path><polygon class="cls-2" points="140.37 149.49 140.37 219.09 145.37 219.09 145.37 219.73 146.02 219.09 150.37 219.09 150.37 214.73 150.37 200.59 191.48 159.49 205.62 159.49 219.76 159.49 160.16 219.09 202.11 219.09 261.71 159.49 275.85 159.49 290 159.49 230.4 219.09 272.34 219.09 272.34 219.09 331.94 159.49 346.08 159.49 349.46 159.49 349.46 170.25 289.86 229.85 289.86 229.85 289.86 271.8 289.86 271.8 349.46 212.19 349.46 226.34 349.46 240.48 289.86 300.08 289.86 300.08 289.86 342.03 349.46 282.43 349.46 296.57 349.46 310.71 301.6 358.57 289.86 358.57 289.86 363.57 289.86 368.57 359.46 368.57 359.46 149.49 140.37 149.49"></polygon></svg> 